<mxfile host="app.diagrams.net" modified="2023-06-07T14:17:55.468Z" agent="Mozilla/5.0 (Windows NT 10.0; Win64; x64) AppleWebKit/537.36 (KHTML, like Gecko) Chrome/114.0.0.0 Safari/537.36" etag="vYXuaCdNYXXoY0rct2OH" version="21.3.7" type="device">
  <diagram name="Page-1" id="2YBvvXClWsGukQMizWep">
    <mxGraphModel dx="890" dy="943" grid="1" gridSize="10" guides="1" tooltips="1" connect="1" arrows="1" fold="1" page="1" pageScale="1" pageWidth="850" pageHeight="1100" math="0" shadow="0">
      <root>
        <mxCell id="0" />
        <mxCell id="1" parent="0" />
        <mxCell id="dZeMj2iD2hikStEiDa7G-10" value="Response" style="shape=umlLifeline;perimeter=lifelinePerimeter;whiteSpace=wrap;html=1;container=0;dropTarget=0;collapsible=0;recursiveResize=0;outlineConnect=0;portConstraint=eastwest;newEdgeStyle={&quot;edgeStyle&quot;:&quot;elbowEdgeStyle&quot;,&quot;elbow&quot;:&quot;vertical&quot;,&quot;curved&quot;:0,&quot;rounded&quot;:0};" vertex="1" parent="1">
          <mxGeometry x="1070" y="210" width="100" height="880" as="geometry" />
        </mxCell>
        <mxCell id="dZeMj2iD2hikStEiDa7G-1" value="VerbalizeStudentsMarks" style="shape=umlLifeline;perimeter=lifelinePerimeter;whiteSpace=wrap;html=1;container=0;dropTarget=0;collapsible=0;recursiveResize=0;outlineConnect=0;portConstraint=eastwest;newEdgeStyle={&quot;edgeStyle&quot;:&quot;elbowEdgeStyle&quot;,&quot;elbow&quot;:&quot;vertical&quot;,&quot;curved&quot;:0,&quot;rounded&quot;:0};" vertex="1" parent="1">
          <mxGeometry x="290" y="210" width="140" height="880" as="geometry" />
        </mxCell>
        <mxCell id="dZeMj2iD2hikStEiDa7G-2" value="doGet(request, response)" style="html=1;verticalAlign=bottom;startArrow=oval;endArrow=block;startSize=8;edgeStyle=elbowEdgeStyle;elbow=vertical;curved=0;rounded=0;" edge="1" parent="dZeMj2iD2hikStEiDa7G-1" target="dZeMj2iD2hikStEiDa7G-3">
          <mxGeometry relative="1" as="geometry">
            <mxPoint x="-90" y="70" as="sourcePoint" />
            <mxPoint x="55" y="70" as="targetPoint" />
          </mxGeometry>
        </mxCell>
        <mxCell id="dZeMj2iD2hikStEiDa7G-3" value="" style="html=1;points=[];perimeter=orthogonalPerimeter;outlineConnect=0;targetShapes=umlLifeline;portConstraint=eastwest;newEdgeStyle={&quot;edgeStyle&quot;:&quot;elbowEdgeStyle&quot;,&quot;elbow&quot;:&quot;vertical&quot;,&quot;curved&quot;:0,&quot;rounded&quot;:0};" vertex="1" parent="dZeMj2iD2hikStEiDa7G-1">
          <mxGeometry x="65" y="70" width="10" height="770" as="geometry" />
        </mxCell>
        <mxCell id="dZeMj2iD2hikStEiDa7G-4" value="Session" style="shape=umlLifeline;perimeter=lifelinePerimeter;whiteSpace=wrap;html=1;container=0;dropTarget=0;collapsible=0;recursiveResize=0;outlineConnect=0;portConstraint=eastwest;newEdgeStyle={&quot;edgeStyle&quot;:&quot;elbowEdgeStyle&quot;,&quot;elbow&quot;:&quot;vertical&quot;,&quot;curved&quot;:0,&quot;rounded&quot;:0};" vertex="1" parent="1">
          <mxGeometry x="460" y="210" width="100" height="880" as="geometry" />
        </mxCell>
        <mxCell id="dZeMj2iD2hikStEiDa7G-5" value="" style="html=1;points=[];perimeter=orthogonalPerimeter;outlineConnect=0;targetShapes=umlLifeline;portConstraint=eastwest;newEdgeStyle={&quot;edgeStyle&quot;:&quot;elbowEdgeStyle&quot;,&quot;elbow&quot;:&quot;vertical&quot;,&quot;curved&quot;:0,&quot;rounded&quot;:0};" vertex="1" parent="dZeMj2iD2hikStEiDa7G-4">
          <mxGeometry x="45" y="90" width="10" height="30" as="geometry" />
        </mxCell>
        <mxCell id="dZeMj2iD2hikStEiDa7G-6" value="HttpServletRequest" style="shape=umlLifeline;perimeter=lifelinePerimeter;whiteSpace=wrap;html=1;container=0;dropTarget=0;collapsible=0;recursiveResize=0;outlineConnect=0;portConstraint=eastwest;newEdgeStyle={&quot;edgeStyle&quot;:&quot;elbowEdgeStyle&quot;,&quot;elbow&quot;:&quot;vertical&quot;,&quot;curved&quot;:0,&quot;rounded&quot;:0};" vertex="1" parent="1">
          <mxGeometry x="580" y="210" width="120" height="880" as="geometry" />
        </mxCell>
        <mxCell id="dZeMj2iD2hikStEiDa7G-40" value="" style="html=1;points=[];perimeter=orthogonalPerimeter;outlineConnect=0;targetShapes=umlLifeline;portConstraint=eastwest;newEdgeStyle={&quot;edgeStyle&quot;:&quot;elbowEdgeStyle&quot;,&quot;elbow&quot;:&quot;vertical&quot;,&quot;curved&quot;:0,&quot;rounded&quot;:0};" vertex="1" parent="dZeMj2iD2hikStEiDa7G-6">
          <mxGeometry x="55" y="359.47" width="10" height="30" as="geometry" />
        </mxCell>
        <mxCell id="dZeMj2iD2hikStEiDa7G-41" value="(Integer) getParameter(&quot;studentId&quot;) &lt;br&gt;&lt;b&gt;&lt;font color=&quot;#ff8000&quot;&gt;?: [THROW NumberFormatExcpetion &lt;br&gt;| NullPointerExcpetion]&lt;/font&gt;&lt;/b&gt;" style="html=1;verticalAlign=bottom;endArrow=block;edgeStyle=elbowEdgeStyle;elbow=vertical;curved=0;rounded=0;" edge="1" parent="dZeMj2iD2hikStEiDa7G-6" target="dZeMj2iD2hikStEiDa7G-40">
          <mxGeometry relative="1" as="geometry">
            <mxPoint x="-215" y="359.47" as="sourcePoint" />
            <Array as="points">
              <mxPoint x="20" y="359.47" />
              <mxPoint x="-148" y="364.47" />
              <mxPoint x="-168" y="374.47" />
              <mxPoint x="-148" y="364.47" />
            </Array>
            <mxPoint x="-63" y="364.47" as="targetPoint" />
          </mxGeometry>
        </mxCell>
        <mxCell id="dZeMj2iD2hikStEiDa7G-42" value="studentId" style="html=1;verticalAlign=bottom;endArrow=open;dashed=1;endSize=8;edgeStyle=elbowEdgeStyle;elbow=vertical;curved=0;rounded=0;" edge="1" parent="dZeMj2iD2hikStEiDa7G-6" source="dZeMj2iD2hikStEiDa7G-40">
          <mxGeometry x="0.0031" relative="1" as="geometry">
            <mxPoint x="-215" y="389.47" as="targetPoint" />
            <Array as="points">
              <mxPoint y="389.47" />
              <mxPoint x="45" y="394.47" />
              <mxPoint x="-10" y="394.47" />
            </Array>
            <mxPoint x="57" y="394.47" as="sourcePoint" />
            <mxPoint as="offset" />
          </mxGeometry>
        </mxCell>
        <mxCell id="dZeMj2iD2hikStEiDa7G-43" value="" style="html=1;points=[];perimeter=orthogonalPerimeter;outlineConnect=0;targetShapes=umlLifeline;portConstraint=eastwest;newEdgeStyle={&quot;edgeStyle&quot;:&quot;elbowEdgeStyle&quot;,&quot;elbow&quot;:&quot;vertical&quot;,&quot;curved&quot;:0,&quot;rounded&quot;:0};" vertex="1" parent="dZeMj2iD2hikStEiDa7G-6">
          <mxGeometry x="55" y="420" width="10" height="30" as="geometry" />
        </mxCell>
        <mxCell id="dZeMj2iD2hikStEiDa7G-44" value="getParameter(&quot;newMark&quot;)" style="html=1;verticalAlign=bottom;endArrow=block;edgeStyle=elbowEdgeStyle;elbow=vertical;curved=0;rounded=0;" edge="1" parent="dZeMj2iD2hikStEiDa7G-6" target="dZeMj2iD2hikStEiDa7G-43">
          <mxGeometry relative="1" as="geometry">
            <mxPoint x="-215" y="420" as="sourcePoint" />
            <Array as="points">
              <mxPoint x="20" y="420" />
              <mxPoint x="-148" y="425" />
              <mxPoint x="-168" y="435" />
              <mxPoint x="-148" y="425" />
            </Array>
            <mxPoint x="-63" y="425" as="targetPoint" />
          </mxGeometry>
        </mxCell>
        <mxCell id="dZeMj2iD2hikStEiDa7G-45" value="newMark" style="html=1;verticalAlign=bottom;endArrow=open;dashed=1;endSize=8;edgeStyle=elbowEdgeStyle;elbow=vertical;curved=0;rounded=0;" edge="1" parent="dZeMj2iD2hikStEiDa7G-6" source="dZeMj2iD2hikStEiDa7G-43">
          <mxGeometry x="0.0031" relative="1" as="geometry">
            <mxPoint x="-215" y="450" as="targetPoint" />
            <Array as="points">
              <mxPoint y="450" />
              <mxPoint x="45" y="455" />
              <mxPoint x="-10" y="455" />
            </Array>
            <mxPoint x="57" y="455" as="sourcePoint" />
            <mxPoint as="offset" />
          </mxGeometry>
        </mxCell>
        <mxCell id="dZeMj2iD2hikStEiDa7G-7" value="User" style="shape=umlLifeline;perimeter=lifelinePerimeter;whiteSpace=wrap;html=1;container=0;dropTarget=0;collapsible=0;recursiveResize=0;outlineConnect=0;portConstraint=eastwest;newEdgeStyle={&quot;edgeStyle&quot;:&quot;elbowEdgeStyle&quot;,&quot;elbow&quot;:&quot;vertical&quot;,&quot;curved&quot;:0,&quot;rounded&quot;:0};" vertex="1" parent="1">
          <mxGeometry x="710" y="210" width="100" height="880" as="geometry" />
        </mxCell>
        <mxCell id="dZeMj2iD2hikStEiDa7G-8" value="CallEvaluationDAO" style="shape=umlLifeline;perimeter=lifelinePerimeter;whiteSpace=wrap;html=1;container=0;dropTarget=0;collapsible=0;recursiveResize=0;outlineConnect=0;portConstraint=eastwest;newEdgeStyle={&quot;edgeStyle&quot;:&quot;elbowEdgeStyle&quot;,&quot;elbow&quot;:&quot;vertical&quot;,&quot;curved&quot;:0,&quot;rounded&quot;:0};" vertex="1" parent="1">
          <mxGeometry x="820" y="210" width="120" height="880" as="geometry" />
        </mxCell>
        <mxCell id="dZeMj2iD2hikStEiDa7G-9" value="Exception" style="shape=umlLifeline;perimeter=lifelinePerimeter;whiteSpace=wrap;html=1;container=0;dropTarget=0;collapsible=0;recursiveResize=0;outlineConnect=0;portConstraint=eastwest;newEdgeStyle={&quot;edgeStyle&quot;:&quot;elbowEdgeStyle&quot;,&quot;elbow&quot;:&quot;vertical&quot;,&quot;curved&quot;:0,&quot;rounded&quot;:0};" vertex="1" parent="1">
          <mxGeometry x="960" y="210" width="100" height="880" as="geometry" />
        </mxCell>
        <mxCell id="dZeMj2iD2hikStEiDa7G-21" value="" style="html=1;points=[];perimeter=orthogonalPerimeter;outlineConnect=0;targetShapes=umlLifeline;portConstraint=eastwest;newEdgeStyle={&quot;edgeStyle&quot;:&quot;elbowEdgeStyle&quot;,&quot;elbow&quot;:&quot;vertical&quot;,&quot;curved&quot;:0,&quot;rounded&quot;:0};" vertex="1" parent="dZeMj2iD2hikStEiDa7G-9">
          <mxGeometry x="-325" y="710.5" width="10" height="20" as="geometry" />
        </mxCell>
        <mxCell id="dZeMj2iD2hikStEiDa7G-22" value="setAttribute(&quot;errorMessage&quot;, error message)" style="html=1;verticalAlign=bottom;endArrow=block;edgeStyle=elbowEdgeStyle;elbow=vertical;curved=0;rounded=0;" edge="1" parent="dZeMj2iD2hikStEiDa7G-9" target="dZeMj2iD2hikStEiDa7G-21">
          <mxGeometry relative="1" as="geometry">
            <mxPoint x="-595" y="710.5" as="sourcePoint" />
            <Array as="points">
              <mxPoint x="-538" y="710.5" />
              <mxPoint x="-558" y="720.5" />
              <mxPoint x="-538" y="710.5" />
            </Array>
            <mxPoint x="-453" y="710.5" as="targetPoint" />
          </mxGeometry>
        </mxCell>
        <mxCell id="dZeMj2iD2hikStEiDa7G-23" value="" style="html=1;points=[];perimeter=orthogonalPerimeter;outlineConnect=0;targetShapes=umlLifeline;portConstraint=eastwest;newEdgeStyle={&quot;edgeStyle&quot;:&quot;elbowEdgeStyle&quot;,&quot;elbow&quot;:&quot;vertical&quot;,&quot;curved&quot;:0,&quot;rounded&quot;:0};" vertex="1" parent="dZeMj2iD2hikStEiDa7G-9">
          <mxGeometry x="-325" y="760.5" width="10" height="20" as="geometry" />
        </mxCell>
        <mxCell id="dZeMj2iD2hikStEiDa7G-24" value="getRequestDispatcher(errorPath).forward(req, resp)" style="html=1;verticalAlign=bottom;endArrow=block;edgeStyle=elbowEdgeStyle;elbow=vertical;curved=0;rounded=0;" edge="1" parent="dZeMj2iD2hikStEiDa7G-9" target="dZeMj2iD2hikStEiDa7G-23">
          <mxGeometry relative="1" as="geometry">
            <mxPoint x="-595" y="760.5" as="sourcePoint" />
            <Array as="points">
              <mxPoint x="-538" y="760.5" />
              <mxPoint x="-558" y="770.5" />
              <mxPoint x="-538" y="760.5" />
            </Array>
            <mxPoint x="-453" y="760.5" as="targetPoint" />
          </mxGeometry>
        </mxCell>
        <mxCell id="dZeMj2iD2hikStEiDa7G-28" value="" style="html=1;points=[];perimeter=orthogonalPerimeter;outlineConnect=0;targetShapes=umlLifeline;portConstraint=eastwest;newEdgeStyle={&quot;edgeStyle&quot;:&quot;elbowEdgeStyle&quot;,&quot;elbow&quot;:&quot;vertical&quot;,&quot;curved&quot;:0,&quot;rounded&quot;:0};" vertex="1" parent="dZeMj2iD2hikStEiDa7G-9">
          <mxGeometry x="45" y="650.5" width="10" height="30" as="geometry" />
        </mxCell>
        <mxCell id="dZeMj2iD2hikStEiDa7G-35" value="getMessage()" style="html=1;verticalAlign=bottom;endArrow=block;edgeStyle=elbowEdgeStyle;elbow=vertical;curved=0;rounded=0;" edge="1" parent="dZeMj2iD2hikStEiDa7G-9" target="dZeMj2iD2hikStEiDa7G-28">
          <mxGeometry relative="1" as="geometry">
            <mxPoint x="-595" y="650.5" as="sourcePoint" />
            <Array as="points">
              <mxPoint x="-130" y="650.5" />
              <mxPoint x="-160" y="660.5" />
              <mxPoint x="-380" y="671.5" />
              <mxPoint x="-518" y="660.5" />
              <mxPoint x="-538" y="670.5" />
              <mxPoint x="-518" y="660.5" />
            </Array>
            <mxPoint x="-75" y="671.5" as="targetPoint" />
          </mxGeometry>
        </mxCell>
        <mxCell id="dZeMj2iD2hikStEiDa7G-36" value="error message" style="html=1;verticalAlign=bottom;endArrow=open;dashed=1;endSize=8;edgeStyle=elbowEdgeStyle;elbow=vertical;curved=0;rounded=0;" edge="1" parent="dZeMj2iD2hikStEiDa7G-9" source="dZeMj2iD2hikStEiDa7G-28">
          <mxGeometry x="0.0031" relative="1" as="geometry">
            <mxPoint x="-595" y="680.5" as="targetPoint" />
            <Array as="points">
              <mxPoint x="-288" y="680.5" />
              <mxPoint x="-83" y="669.5" />
              <mxPoint x="-138" y="669.5" />
            </Array>
            <mxPoint x="27" y="680.5" as="sourcePoint" />
            <mxPoint as="offset" />
          </mxGeometry>
        </mxCell>
        <mxCell id="dZeMj2iD2hikStEiDa7G-37" value="Catch(SQLException | &lt;b style=&quot;color: rgb(240, 240, 240); font-size: 11px; font-style: normal;&quot;&gt;&lt;font color=&quot;#ff8000&quot;&gt;NumberFormatExcpetion | NullPointerExcpetion | GraduationCallDAOException | CallEvaluationDAOException&lt;/font&gt;&lt;/b&gt;)" style="text;html=1;align=center;verticalAlign=middle;whiteSpace=wrap;rounded=0;fontStyle=3;fontColor=#FF8000;" vertex="1" parent="dZeMj2iD2hikStEiDa7G-9">
          <mxGeometry x="-670" y="610" width="330" height="20" as="geometry" />
        </mxCell>
        <mxCell id="dZeMj2iD2hikStEiDa7G-39" value="sendRedirect(&quot;/GetSubscriptionToCall?callid=&quot; + callId)" style="html=1;verticalAlign=bottom;endArrow=block;edgeStyle=elbowEdgeStyle;elbow=vertical;curved=0;rounded=0;" edge="1" parent="dZeMj2iD2hikStEiDa7G-9" target="dZeMj2iD2hikStEiDa7G-11">
          <mxGeometry relative="1" as="geometry">
            <mxPoint x="-595" y="830.5" as="sourcePoint" />
            <Array as="points">
              <mxPoint x="-30" y="830.5" />
              <mxPoint x="30" y="800.5" />
              <mxPoint x="-130" y="790.5" />
              <mxPoint x="-160" y="800.5" />
              <mxPoint x="-380" y="811.5" />
              <mxPoint x="-518" y="800.5" />
              <mxPoint x="-538" y="810.5" />
              <mxPoint x="-518" y="800.5" />
            </Array>
            <mxPoint x="45" y="790.5" as="targetPoint" />
          </mxGeometry>
        </mxCell>
        <mxCell id="dZeMj2iD2hikStEiDa7G-11" value="" style="html=1;points=[];perimeter=orthogonalPerimeter;outlineConnect=0;targetShapes=umlLifeline;portConstraint=eastwest;newEdgeStyle={&quot;edgeStyle&quot;:&quot;elbowEdgeStyle&quot;,&quot;elbow&quot;:&quot;vertical&quot;,&quot;curved&quot;:0,&quot;rounded&quot;:0};" vertex="1" parent="dZeMj2iD2hikStEiDa7G-9">
          <mxGeometry x="155" y="820.5" width="10" height="20" as="geometry" />
        </mxCell>
        <mxCell id="dZeMj2iD2hikStEiDa7G-12" value="GraduationCallDAO" style="shape=umlLifeline;perimeter=lifelinePerimeter;whiteSpace=wrap;html=1;container=0;dropTarget=0;collapsible=0;recursiveResize=0;outlineConnect=0;portConstraint=eastwest;newEdgeStyle={&quot;edgeStyle&quot;:&quot;elbowEdgeStyle&quot;,&quot;elbow&quot;:&quot;vertical&quot;,&quot;curved&quot;:0,&quot;rounded&quot;:0};" vertex="1" parent="1">
          <mxGeometry x="1180" y="210" width="120" height="880" as="geometry" />
        </mxCell>
        <mxCell id="dZeMj2iD2hikStEiDa7G-29" value="" style="html=1;points=[];perimeter=orthogonalPerimeter;outlineConnect=0;targetShapes=umlLifeline;portConstraint=eastwest;newEdgeStyle={&quot;edgeStyle&quot;:&quot;elbowEdgeStyle&quot;,&quot;elbow&quot;:&quot;vertical&quot;,&quot;curved&quot;:0,&quot;rounded&quot;:0};" vertex="1" parent="dZeMj2iD2hikStEiDa7G-12">
          <mxGeometry x="55" y="480" width="10" height="20" as="geometry" />
        </mxCell>
        <mxCell id="dZeMj2iD2hikStEiDa7G-31" value="checkIfCourseOfCallIsTaughtByLecturer(callId, idUser) &lt;b&gt;&lt;font color=&quot;#ff8000&quot;&gt;?: [THROW GraduationCallDAOException]&lt;/font&gt;&lt;/b&gt;" style="html=1;verticalAlign=bottom;endArrow=block;edgeStyle=elbowEdgeStyle;elbow=vertical;curved=0;rounded=0;" edge="1" parent="dZeMj2iD2hikStEiDa7G-12" target="dZeMj2iD2hikStEiDa7G-29">
          <mxGeometry x="-0.0007" relative="1" as="geometry">
            <mxPoint x="-815" y="480" as="sourcePoint" />
            <Array as="points">
              <mxPoint x="-30" y="480" />
              <mxPoint x="20" y="570" />
              <mxPoint x="-20" y="580" />
              <mxPoint x="-606" y="761.5" />
              <mxPoint x="-744" y="750.5" />
              <mxPoint x="-764" y="760.5" />
              <mxPoint x="-744" y="750.5" />
            </Array>
            <mxPoint x="-301" y="761.5" as="targetPoint" />
            <mxPoint as="offset" />
          </mxGeometry>
        </mxCell>
        <mxCell id="dZeMj2iD2hikStEiDa7G-13" value="getAttribute(&quot;user&quot;)" style="html=1;verticalAlign=bottom;endArrow=block;edgeStyle=elbowEdgeStyle;elbow=vertical;curved=0;rounded=0;" edge="1" parent="1" source="dZeMj2iD2hikStEiDa7G-3" target="dZeMj2iD2hikStEiDa7G-5">
          <mxGeometry relative="1" as="geometry">
            <mxPoint x="358" y="300" as="sourcePoint" />
            <Array as="points">
              <mxPoint x="420" y="300" />
              <mxPoint x="400" y="310" />
              <mxPoint x="420" y="300" />
            </Array>
            <mxPoint x="530" y="300" as="targetPoint" />
          </mxGeometry>
        </mxCell>
        <mxCell id="dZeMj2iD2hikStEiDa7G-14" value="user" style="html=1;verticalAlign=bottom;endArrow=open;dashed=1;endSize=8;edgeStyle=elbowEdgeStyle;elbow=vertical;curved=0;rounded=0;" edge="1" parent="1" source="dZeMj2iD2hikStEiDa7G-5" target="dZeMj2iD2hikStEiDa7G-3">
          <mxGeometry x="0.0031" relative="1" as="geometry">
            <mxPoint x="358" y="330" as="targetPoint" />
            <Array as="points">
              <mxPoint x="493" y="330" />
              <mxPoint x="438" y="330" />
            </Array>
            <mxPoint x="508" y="330" as="sourcePoint" />
            <mxPoint as="offset" />
          </mxGeometry>
        </mxCell>
        <mxCell id="dZeMj2iD2hikStEiDa7G-15" value="alt" style="shape=umlFrame;whiteSpace=wrap;html=1;pointerEvents=0;width=55;height=20;" vertex="1" parent="1">
          <mxGeometry x="280" y="370" width="1150" height="640" as="geometry" />
        </mxCell>
        <mxCell id="dZeMj2iD2hikStEiDa7G-16" value="Try" style="text;html=1;align=center;verticalAlign=middle;whiteSpace=wrap;rounded=0;fontStyle=3;fontColor=#FF8000;" vertex="1" parent="1">
          <mxGeometry x="270" y="380" width="150" height="20" as="geometry" />
        </mxCell>
        <mxCell id="dZeMj2iD2hikStEiDa7G-17" value="getId()" style="html=1;verticalAlign=bottom;endArrow=block;edgeStyle=elbowEdgeStyle;elbow=vertical;curved=0;rounded=0;" edge="1" parent="1" source="dZeMj2iD2hikStEiDa7G-3" target="dZeMj2iD2hikStEiDa7G-25">
          <mxGeometry relative="1" as="geometry">
            <mxPoint x="375" y="410" as="sourcePoint" />
            <Array as="points">
              <mxPoint x="620" y="400" />
              <mxPoint x="432" y="410" />
              <mxPoint x="412" y="420" />
              <mxPoint x="432" y="410" />
            </Array>
            <mxPoint x="517" y="410" as="targetPoint" />
          </mxGeometry>
        </mxCell>
        <mxCell id="dZeMj2iD2hikStEiDa7G-18" value="" style="html=1;points=[];perimeter=orthogonalPerimeter;outlineConnect=0;targetShapes=umlLifeline;portConstraint=eastwest;newEdgeStyle={&quot;edgeStyle&quot;:&quot;elbowEdgeStyle&quot;,&quot;elbow&quot;:&quot;vertical&quot;,&quot;curved&quot;:0,&quot;rounded&quot;:0};" vertex="1" parent="1">
          <mxGeometry x="635" y="490" width="10" height="30" as="geometry" />
        </mxCell>
        <mxCell id="dZeMj2iD2hikStEiDa7G-19" value="(Integer) getParameter(&quot;callid&quot;) &lt;br&gt;&lt;b&gt;&lt;font color=&quot;#ff8000&quot;&gt;?: [THROW NumberFormatExcpetion &lt;br&gt;| NullPointerExcpetion]&lt;/font&gt;&lt;/b&gt;" style="html=1;verticalAlign=bottom;endArrow=block;edgeStyle=elbowEdgeStyle;elbow=vertical;curved=0;rounded=0;" edge="1" parent="1" source="dZeMj2iD2hikStEiDa7G-3" target="dZeMj2iD2hikStEiDa7G-18">
          <mxGeometry relative="1" as="geometry">
            <mxPoint x="368" y="495" as="sourcePoint" />
            <Array as="points">
              <mxPoint x="600" y="490" />
              <mxPoint x="432" y="495" />
              <mxPoint x="412" y="505" />
              <mxPoint x="432" y="495" />
            </Array>
            <mxPoint x="517" y="495" as="targetPoint" />
          </mxGeometry>
        </mxCell>
        <mxCell id="dZeMj2iD2hikStEiDa7G-20" value="callId" style="html=1;verticalAlign=bottom;endArrow=open;dashed=1;endSize=8;edgeStyle=elbowEdgeStyle;elbow=vertical;curved=0;rounded=0;" edge="1" parent="1" source="dZeMj2iD2hikStEiDa7G-18" target="dZeMj2iD2hikStEiDa7G-3">
          <mxGeometry x="0.0031" relative="1" as="geometry">
            <mxPoint x="368" y="525" as="targetPoint" />
            <Array as="points">
              <mxPoint x="580" y="520" />
              <mxPoint x="625" y="525" />
              <mxPoint x="570" y="525" />
            </Array>
            <mxPoint x="637" y="525" as="sourcePoint" />
            <mxPoint as="offset" />
          </mxGeometry>
        </mxCell>
        <mxCell id="dZeMj2iD2hikStEiDa7G-25" value="" style="html=1;points=[];perimeter=orthogonalPerimeter;outlineConnect=0;targetShapes=umlLifeline;portConstraint=eastwest;newEdgeStyle={&quot;edgeStyle&quot;:&quot;elbowEdgeStyle&quot;,&quot;elbow&quot;:&quot;vertical&quot;,&quot;curved&quot;:0,&quot;rounded&quot;:0};" vertex="1" parent="1">
          <mxGeometry x="755" y="400" width="10" height="30" as="geometry" />
        </mxCell>
        <mxCell id="dZeMj2iD2hikStEiDa7G-27" value="idUser" style="html=1;verticalAlign=bottom;endArrow=open;dashed=1;endSize=8;edgeStyle=elbowEdgeStyle;elbow=vertical;curved=0;rounded=0;" edge="1" parent="1" source="dZeMj2iD2hikStEiDa7G-25" target="dZeMj2iD2hikStEiDa7G-3">
          <mxGeometry x="0.0031" relative="1" as="geometry">
            <mxPoint x="375" y="440" as="targetPoint" />
            <Array as="points">
              <mxPoint x="660" y="430" />
              <mxPoint x="690" y="440" />
              <mxPoint x="765" y="440" />
              <mxPoint x="710" y="440" />
            </Array>
            <mxPoint x="780" y="440" as="sourcePoint" />
            <mxPoint as="offset" />
          </mxGeometry>
        </mxCell>
        <mxCell id="dZeMj2iD2hikStEiDa7G-30" value="" style="html=1;points=[];perimeter=orthogonalPerimeter;outlineConnect=0;targetShapes=umlLifeline;portConstraint=eastwest;newEdgeStyle={&quot;edgeStyle&quot;:&quot;elbowEdgeStyle&quot;,&quot;elbow&quot;:&quot;vertical&quot;,&quot;curved&quot;:0,&quot;rounded&quot;:0};" vertex="1" parent="1">
          <mxGeometry x="875" y="760" width="10" height="20" as="geometry" />
        </mxCell>
        <mxCell id="dZeMj2iD2hikStEiDa7G-32" value="updateMarkByStudentAndCallId(studentId, callId, newMark)" style="html=1;verticalAlign=bottom;endArrow=block;edgeStyle=elbowEdgeStyle;elbow=vertical;curved=0;rounded=0;" edge="1" parent="1" target="dZeMj2iD2hikStEiDa7G-30">
          <mxGeometry x="-0.0007" relative="1" as="geometry">
            <mxPoint x="365" y="780.0000000000002" as="sourcePoint" />
            <Array as="points">
              <mxPoint x="790" y="760" />
              <mxPoint x="790" y="750" />
              <mxPoint x="860" y="780" />
              <mxPoint x="990" y="770" />
              <mxPoint x="1205" y="840" />
              <mxPoint x="1165" y="850" />
              <mxPoint x="579" y="1031.5" />
              <mxPoint x="441" y="1020.5" />
              <mxPoint x="421" y="1030.5" />
              <mxPoint x="441" y="1020.5" />
            </Array>
            <mxPoint x="1250" y="840" as="targetPoint" />
            <mxPoint as="offset" />
          </mxGeometry>
        </mxCell>
        <mxCell id="dZeMj2iD2hikStEiDa7G-33" value="checkIfStudentIsSubscribedToCall(studentId, callId) &lt;b&gt;&lt;font color=&quot;#ff8000&quot;&gt;?: [THROW StudentDAOException]&lt;/font&gt;&lt;/b&gt;" style="html=1;verticalAlign=bottom;endArrow=block;edgeStyle=elbowEdgeStyle;elbow=vertical;curved=0;rounded=0;" edge="1" parent="1" target="dZeMj2iD2hikStEiDa7G-26">
          <mxGeometry relative="1" as="geometry">
            <mxPoint x="365" y="740.0000000000002" as="sourcePoint" />
            <Array as="points">
              <mxPoint x="1290" y="730" />
              <mxPoint x="830" y="740" />
              <mxPoint x="690" y="870" />
              <mxPoint x="442" y="880" />
              <mxPoint x="422" y="890" />
              <mxPoint x="442" y="880" />
            </Array>
            <mxPoint x="777" y="880" as="targetPoint" />
          </mxGeometry>
        </mxCell>
        <mxCell id="dZeMj2iD2hikStEiDa7G-34" value="" style="line;strokeWidth=3;align=left;verticalAlign=middle;spacingTop=-1;spacingLeft=3;spacingRight=3;rotatable=0;labelPosition=right;points=[];portConstraint=eastwest;dashed=1;strokeColor=#80FF00;" vertex="1" parent="1">
          <mxGeometry x="255" y="790" width="1195" height="8" as="geometry" />
        </mxCell>
        <mxCell id="dZeMj2iD2hikStEiDa7G-46" value="StudentDAO" style="shape=umlLifeline;perimeter=lifelinePerimeter;whiteSpace=wrap;html=1;container=0;dropTarget=0;collapsible=0;recursiveResize=0;outlineConnect=0;portConstraint=eastwest;newEdgeStyle={&quot;edgeStyle&quot;:&quot;elbowEdgeStyle&quot;,&quot;elbow&quot;:&quot;vertical&quot;,&quot;curved&quot;:0,&quot;rounded&quot;:0};" vertex="1" parent="1">
          <mxGeometry x="1310" y="210" width="100" height="750" as="geometry" />
        </mxCell>
        <mxCell id="dZeMj2iD2hikStEiDa7G-26" value="" style="html=1;points=[];perimeter=orthogonalPerimeter;outlineConnect=0;targetShapes=umlLifeline;portConstraint=eastwest;newEdgeStyle={&quot;edgeStyle&quot;:&quot;elbowEdgeStyle&quot;,&quot;elbow&quot;:&quot;vertical&quot;,&quot;curved&quot;:0,&quot;rounded&quot;:0};" vertex="1" parent="dZeMj2iD2hikStEiDa7G-46">
          <mxGeometry x="45" y="520" width="10" height="20" as="geometry" />
        </mxCell>
      </root>
    </mxGraphModel>
  </diagram>
</mxfile>
